<svg width="20" height="24" viewBox="0 0 20 24" fill="none" xmlns="http://www.w3.org/2000/svg">
<path d="M14.5 1.875V6.375M5.5 1.875V6.375M1 10.875H19M4.375 14.25H4.38963M7.76099 14.25H7.76661M11.136 14.25H11.1416M14.5176 14.25H14.5232M11.1426 17.625H11.1482M4.38599 17.625H4.39161M7.76099 17.625H7.76661M1 6.375C1 5.77826 1.23705 5.20597 1.65901 4.78401C2.08097 4.36205 2.65326 4.125 3.25 4.125H16.75C17.3467 4.125 17.919 4.36205 18.341 4.78401C18.7629 5.20597 19 5.77826 19 6.375V19.875C19 20.4717 18.7629 21.044 18.341 21.466C17.919 21.8879 17.3467 22.125 16.75 22.125H3.25C2.65326 22.125 2.08097 21.8879 1.65901 21.466C1.23705 21.044 1 20.4717 1 19.875V6.375Z" stroke="#FFEFE7" stroke-width="2" stroke-linecap="round" stroke-linejoin="round"/>
</svg>
