<svg width="24" height="30" viewBox="0 0 24 30" fill="none" xmlns="http://www.w3.org/2000/svg">
<path d="M2 22.2464L9.14286 23.6957L10.2143 21.5218M17.7143 28.0435V22.2464L12 17.8986L13.4286 9.20292M13.4286 9.20292L6.28571 10.6522V15M13.4286 9.20292L17.7143 13.5507L22 15M13.4286 3.40582C13.4286 3.79019 13.5791 4.15882 13.847 4.43061C14.1149 4.7024 14.4783 4.85509 14.8571 4.85509C15.236 4.85509 15.5994 4.7024 15.8673 4.43061C16.1352 4.15882 16.2857 3.79019 16.2857 3.40582C16.2857 3.02145 16.1352 2.65282 15.8673 2.38103C15.5994 2.10923 15.236 1.95654 14.8571 1.95654C14.4783 1.95654 14.1149 2.10923 13.847 2.38103C13.5791 2.65282 13.4286 3.02145 13.4286 3.40582Z" stroke="#C00013" stroke-width="3" stroke-linecap="round" stroke-linejoin="round"/>
</svg>
